<?xml version="1.0" encoding="UTF-8" standalone="no"?>
<svg
   width="4.5rem"
   height="4rem"
   viewBox="0 0 576 512"
   version="1.1"
   id="svg1"
   sodipodi:docname="cat.svg"
   inkscape:version="1.3.2 (091e20ef0f, 2023-11-25, custom)"
   xmlns:inkscape="http://www.inkscape.org/namespaces/inkscape"
   xmlns:sodipodi="http://sodipodi.sourceforge.net/DTD/sodipodi-0.dtd"
   xmlns="http://www.w3.org/2000/svg"
   xmlns:svg="http://www.w3.org/2000/svg">
  <defs
     id="defs1" />
  <sodipodi:namedview
     id="namedview1"
     pagecolor="#ffffff"
     bordercolor="#000000"
     borderopacity="0.25"
     inkscape:showpageshadow="2"
     inkscape:pageopacity="0.0"
     inkscape:pagecheckerboard="true"
     inkscape:deskcolor="#d1d1d1"
     showborder="true"
     labelstyle="default"
     inkscape:zoom="0.43681756"
     inkscape:cx="279.2928"
     inkscape:cy="164.82854"
     inkscape:window-width="770"
     inkscape:window-height="593"
     inkscape:window-x="26"
     inkscape:window-y="23"
     inkscape:window-maximized="0"
     inkscape:current-layer="svg1" />
  <path
     fill="white"
     d="m 290.809,222.87396 h 6.23009 c 8.05175,13.95394 23.13513,23.31729 40.4045,23.31729 4.00765,0 7.94244,-0.51007 11.65864,-1.45733 v 83.06784 c 0,6.44869 -5.20996,11.65865 -11.65864,11.65865 -6.4487,0 -11.65865,-5.20996 -11.65865,-11.65865 v -51.29803 l -49.54925,39.63939 h 20.40264 c 6.44868,0 11.65864,5.20996 11.65864,11.65864 0,6.44869 -5.20996,11.65865 -11.65864,11.65865 h -52.46391 c -19.30963,0 -34.97593,-15.66631 -34.97593,-34.97594 v -81.42834 c 0,-5.86576 -4.37199,-10.85712 -10.20131,-11.58578 l -2.87823,-0.36433 c -6.37582,-0.80154 -10.92998,-6.63086 -10.12845,-13.00668 0.80153,-6.37582 6.63086,-10.92998 13.00668,-10.12845 l 2.87822,0.36434 c 17.48797,2.18599 30.64038,17.05076 30.64038,34.7209 v 31.07758 c 12.53304,-18.83601 33.9558,-31.25975 58.29322,-31.25975 m 58.29323,9.65481 c -3.64333,1.27517 -7.57812,2.00383 -11.65864,2.00383 -10.34705,0 -19.67397,-4.51772 -26.08623,-11.65864 -1.34803,-1.49377 -2.55033,-3.09683 -3.60689,-4.80919 -3.35186,-5.39212 -5.28282,-11.73151 -5.28282,-18.5081 v -42.73622 c 0,-2.14956 1.71236,-3.86192 3.86193,-3.89836 h 0.0729 c 1.20229,0 2.33173,0.58293 3.06039,1.5302 v 0.0364 l 4.66346,6.19366 9.90985,13.22527 1.7488,2.33173 h 23.31728 l 1.7488,-2.33173 9.90985,-13.22527 4.66346,-6.19366 v -0.0364 c 0.72867,-0.94727 1.8581,-1.5302 3.06039,-1.5302 h 0.0729 c 2.14956,0.0364 3.86193,1.7488 3.86193,3.89836 v 42.73622 c 0,6.30295 -1.67594,12.24158 -4.5906,17.34224 -4.11696,7.21378 -10.78424,12.8245 -18.7267,15.62986 m -17.48799,-32.9721 a 5.8293239,5.8293239 0 1 0 -11.65864,0 5.8293239,5.8293239 0 1 0 11.65864,0 m 17.48797,5.82932 a 5.8293239,5.8293239 0 1 0 0,-11.65864 5.8293239,5.8293239 0 1 0 0,11.65864"
     id="path1"
     style="fill:#ffffff;fill-opacity:1;stroke:#020817;stroke-width:1.82167;stroke-linejoin:round;stroke-dasharray:none;stroke-opacity:0.757177" />
</svg>
