<?xml version="1.0" encoding="UTF-8" standalone="no"?>
<svg
    width="24"
    height="24"
    viewBox="0 0 24 24"
    fill="none"
    stroke="black"
    stroke-width="2"
    stroke-linecap="round"
    stroke-linejoin="round"
    version="1.1"
    id="svg3"
    sodipodi:docname="fail.svg"
    inkscape:version="1.3.2 (091e20ef0f, 2023-11-25, custom)"
    xmlns:inkscape="http://www.inkscape.org/namespaces/inkscape"
    xmlns:sodipodi="http://sodipodi.sourceforge.net/DTD/sodipodi-0.dtd"
    xmlns="http://www.w3.org/2000/svg"
    xmlns:svg="http://www.w3.org/2000/svg">
    <defs
        id="defs3" />
    <sodipodi:namedview
        id="namedview3"
        pagecolor="#ffffff"
        bordercolor="#000000"
        borderopacity="0.25"
        inkscape:showpageshadow="2"
        inkscape:pageopacity="0.0"
        inkscape:pagecheckerboard="true"
        inkscape:deskcolor="#d1d1d1"
        inkscape:zoom="12.80056"
        inkscape:cx="11.483873"
        inkscape:cy="10.8589"
        inkscape:window-width="1020"
        inkscape:window-height="753"
        inkscape:window-x="26"
        inkscape:window-y="23"
        inkscape:window-maximized="0"
        inkscape:current-layer="svg3" />
    <path
        d="M 11.954902,13.804302 H 9.4158849 c -1.0295369,-0.0016 -1.8641342,-0.804976 -1.8641342,-1.796085 0,-0.990709 0.8345973,-1.794084 1.8641342,-1.794084 0.1573126,-0.7053048 0.7181141,-1.2809168 1.4710531,-1.510281 0.752538,-0.2289638 1.583533,-0.077255 2.179159,0.4002865 0.595626,0.4763409 0.865419,1.2036615 0.708507,1.9089665 h 0.396284 c 0.548392,0 1.023132,0.320229 1.247693,0.786162"
        id="path4"
        style="stroke-width:1.401;fill:#000000;fill-opacity:0;stroke-dasharray:none;stroke-linejoin:round;stroke:#020817;stroke-opacity:0.67032707"
        inkscape:label="path1-blackedge" />
    <path
        d="M 13.556048,15.403848 15.55748,13.402415"
        id="path5"
        style="stroke-width:1.201;fill:none;fill-opacity:1;stroke-dasharray:none;stroke-linejoin:round"
        inkscape:label="path3-blackedge" />
    <path
        d="M 15.55748,15.403848 13.556048,13.402415"
        id="path6"
        style="stroke-width:1.201;fill:none;fill-opacity:1;stroke-dasharray:none;stroke-linejoin:round"
        inkscape:label="path2-blackedge" />
    <path
        d="M 11.954902,13.804302 H 9.4158849 c -1.0295369,-0.0016 -1.8641342,-0.804976 -1.8641342,-1.796085 0,-0.990709 0.8345973,-1.794084 1.8641342,-1.794084 0.1573126,-0.7053048 0.7181141,-1.2809168 1.4710531,-1.510281 0.752538,-0.2289638 1.583533,-0.077255 2.179159,0.4002865 0.595626,0.4763409 0.865419,1.2036615 0.708507,1.9089665 h 0.396284 c 0.548392,0 1.023132,0.320229 1.247693,0.786162"
        id="path1"
        style="stroke-width:0.901;fill:#000000;fill-opacity:0;stroke-dasharray:none;stroke-linejoin:round;stroke:#ffffff;stroke-opacity:1"
        inkscape:label="path1" />
    <path
        d="M 15.55748,15.403848 13.556048,13.402415"
        id="path2"
        style="stroke-width:0.801;fill:none;fill-opacity:1;stroke-dasharray:none;stroke-linejoin:round;stroke:#ffffff;stroke-opacity:1"
        inkscape:label="path2" />
    <path
        d="M 13.556048,15.403848 15.55748,13.402415"
        id="path3"
        style="stroke-width:0.801;fill:none;fill-opacity:1;stroke-dasharray:none;stroke-linejoin:round;stroke:#ffffff;stroke-opacity:1"
        inkscape:label="path3" />
</svg>